<svg width="86" height="86" viewBox="0 0 86 86" fill="none" xmlns="http://www.w3.org/2000/svg">
<path d="M42.905 0C37.2706 0 31.6914 1.13732 26.486 3.34703C21.2805 5.55674 16.5507 8.79556 12.5666 12.8786C4.52033 21.1246 0 32.3086 0 43.9702C0 63.405 12.3137 79.8939 29.347 85.7419C31.4923 86.0937 32.1787 84.7306 32.1787 83.5434V76.1124C20.2941 78.7506 17.7627 70.2204 17.7627 70.2204C15.789 65.1199 13.0002 63.7568 13.0002 63.7568C9.09586 61.0306 13.3005 61.1186 13.3005 61.1186C17.591 61.4264 19.865 65.6475 19.865 65.6475C23.5977 72.331 29.9048 70.3523 32.3504 69.297C32.7365 66.439 33.852 64.5043 35.0534 63.405C25.5285 62.3058 15.5316 58.5243 15.5316 41.7717C15.5316 36.891 17.162 32.9776 19.9508 29.8558C19.5218 28.7565 18.0201 24.1836 20.3799 18.2476C20.3799 18.2476 23.9839 17.0604 32.1787 22.7326C35.5682 21.7652 39.2581 21.2816 42.905 21.2816C46.5519 21.2816 50.2418 21.7652 53.6312 22.7326C61.8261 17.0604 65.4301 18.2476 65.4301 18.2476C67.7899 24.1836 66.2882 28.7565 65.8592 29.8558C68.648 32.9776 70.2784 36.891 70.2784 41.7717C70.2784 58.5683 60.2386 62.2618 50.6708 63.3611C52.2154 64.7241 53.6312 67.4063 53.6312 71.4955V83.5434C53.6312 84.7306 54.3177 86.1376 56.5059 85.7419C73.5392 79.8499 85.81 63.405 85.81 43.9702C85.81 38.1959 84.7002 32.4782 82.5441 27.1435C80.3879 21.8088 77.2275 16.9616 73.2434 12.8786C69.2593 8.79556 64.5295 5.55674 59.324 3.34703C54.1186 1.13732 48.5394 0 42.905 0Z" fill="#6AB9AA"/>
</svg>
