<svg width="86" height="86" viewBox="0 0 86 86" fill="none" xmlns="http://www.w3.org/2000/svg">
<path d="M60.3264 29.7252C59.9541 28.7609 59.3839 27.8854 58.6527 27.1549C57.9214 26.4244 57.0452 25.8551 56.0806 25.4838C54.7523 24.9919 53.3494 24.7319 51.9331 24.7151C49.5778 24.6079 48.8716 24.581 42.9051 24.581C36.9386 24.581 36.2325 24.6079 33.8772 24.7151C32.4593 24.7314 31.0549 24.9914 29.7252 25.4838C28.761 25.8561 27.8854 26.4263 27.1549 27.1576C26.4244 27.8888 25.8552 28.765 25.4839 29.7297C24.9919 31.0579 24.7319 32.4608 24.7151 33.8772C24.6079 36.2325 24.5811 36.9386 24.5811 42.9051C24.5811 48.8716 24.6079 49.5777 24.7151 51.9331C24.7314 53.3509 24.9914 54.7554 25.4839 56.085C25.8562 57.0493 26.4263 57.9248 27.1576 58.6553C27.8889 59.3858 28.765 59.9551 29.7297 60.3264C31.0579 60.8183 32.4608 61.0783 33.8772 61.0951C36.2325 61.2023 36.9386 61.2247 42.9051 61.2247C48.8716 61.2247 49.5778 61.2023 51.9331 61.0906C53.3506 61.0758 54.7551 60.8173 56.085 60.3264C57.0493 59.9541 57.9249 59.3839 58.6554 58.6526C59.3859 57.9214 59.9551 57.0452 60.3264 56.0805C60.8183 54.7523 61.0784 53.3494 61.0951 51.9331C61.2024 49.5777 61.2247 48.8716 61.2247 42.9051C61.2247 36.9386 61.2024 36.2325 61.0906 33.8772C61.0758 32.4596 60.8173 31.0551 60.3264 29.7252ZM42.9051 54.3822C40.6352 54.3822 38.4162 53.7091 36.5288 52.448C34.6414 51.1869 33.1703 49.3944 32.3017 47.2972C31.433 45.2 31.2057 42.8924 31.6485 40.666C32.0914 38.4397 33.1845 36.3947 34.7896 34.7896C36.3947 33.1845 38.4397 32.0914 40.666 31.6485C42.8924 31.2057 45.2001 31.433 47.2972 32.3016C49.3944 33.1703 51.1869 34.6414 52.448 36.5288C53.7091 38.4162 54.3822 40.6351 54.3822 42.9051C54.3822 45.949 53.173 48.8683 51.0207 51.0207C48.8683 53.173 45.949 54.3822 42.9051 54.3822ZM54.8336 33.6582C54.3033 33.6582 53.7848 33.5009 53.3438 33.2062C52.9029 32.9116 52.5592 32.4928 52.3562 32.0028C52.1532 31.5128 52.1001 30.9736 52.2036 30.4534C52.3071 29.9333 52.5625 29.4555 52.9375 29.0804C53.3125 28.7054 53.7903 28.45 54.3105 28.3465C54.8307 28.2431 55.3698 28.2962 55.8598 28.4991C56.3498 28.7021 56.7686 29.0458 57.0633 29.4868C57.3579 29.9278 57.5152 30.4462 57.5152 30.9766C57.5152 31.6878 57.2327 32.3699 56.7298 32.8727C56.2269 33.3756 55.5448 33.6582 54.8336 33.6582ZM50.3554 42.9051C50.3554 44.3786 49.9185 45.8191 49.0998 47.0443C48.2812 48.2695 47.1176 49.2244 45.7562 49.7883C44.3949 50.3522 42.8969 50.4997 41.4516 50.2122C40.0064 49.9248 38.6789 49.2152 37.637 48.1733C36.595 47.1313 35.8855 45.8038 35.598 44.3586C35.3105 42.9134 35.4581 41.4154 36.022 40.054C36.5858 38.6926 37.5408 37.5291 38.766 36.7104C39.9912 35.8918 41.4316 35.4548 42.9051 35.4548C44.8811 35.4548 46.7761 36.2397 48.1733 37.637C49.5705 39.0342 50.3554 40.9292 50.3554 42.9051ZM42.9051 0C34.4193 0 26.124 2.51634 19.0683 7.23081C12.0126 11.9453 6.51336 18.6461 3.26598 26.486C0.01859 34.3259 -0.831074 42.9527 0.824429 51.2755C2.47993 59.5983 6.56625 67.2432 12.5666 73.2436C18.567 79.244 26.212 83.3303 34.5348 84.9858C42.8575 86.6413 51.4843 85.7916 59.3242 82.5443C67.1641 79.2969 73.8649 73.7976 78.5794 66.7419C83.2939 59.6862 85.8102 51.3909 85.8102 42.9051C85.8102 31.526 81.2899 20.6129 73.2436 12.5666C65.1973 4.52035 54.2843 0 42.9051 0ZM65.1175 52.1163C65.0796 53.9707 64.7275 55.8053 64.0761 57.542C63.5021 59.0262 62.6244 60.374 61.4992 61.4992C60.374 62.6244 59.0262 63.5021 57.542 64.0761C55.8068 64.727 53.9737 65.0791 52.1208 65.1174C49.7342 65.2247 48.9744 65.2515 42.9051 65.2515C36.8358 65.2515 36.0761 65.2247 33.6895 65.1174C31.8365 65.0791 30.0035 64.727 28.2682 64.0761C26.7841 63.5021 25.4362 62.6244 24.311 61.4992C23.1858 60.374 22.3081 59.0262 21.7341 57.542C21.0832 55.8067 20.7311 53.9737 20.6928 52.1208C20.5855 49.7342 20.5587 48.9744 20.5587 42.9051C20.5587 36.8358 20.5855 36.076 20.6928 33.6894C20.7297 31.8368 21.0803 30.0037 21.7297 28.2682C22.3036 26.7828 23.1818 25.4338 24.3078 24.3078C25.4338 23.1817 26.7828 22.3036 28.2682 21.7296C30.0038 21.0803 31.8368 20.7297 33.6895 20.6928C36.0761 20.5855 36.8358 20.5587 42.9051 20.5587C48.9744 20.5587 49.7342 20.5855 52.1208 20.6928C53.9735 20.7297 55.8065 21.0803 57.542 21.7296C59.0266 22.3041 60.3747 23.1825 61.5 24.3085C62.6252 25.4345 63.5027 26.7832 64.0761 28.2682C64.727 30.0035 65.0791 31.8365 65.1175 33.6894C65.2247 36.076 65.2515 36.8358 65.2515 42.9051C65.2515 48.9744 65.2247 49.7297 65.1175 52.1163Z" fill="#6AB9AA"/>
</svg>
