<svg width="86" height="86" viewBox="0 0 86 86" fill="none" xmlns="http://www.w3.org/2000/svg">
<path d="M42.9051 0C19.209 0 0 19.209 0 42.9051C0 66.6012 19.209 85.8102 42.9051 85.8102C66.6012 85.8102 85.8102 66.6012 85.8102 42.9051C85.8102 19.209 66.6012 0 42.9051 0ZM32.4023 60.6884H23.714V32.7286H32.4023V60.6884ZM28.0045 29.2961C25.2604 29.2961 23.4861 27.352 23.4861 24.9475C23.4861 22.4939 25.314 20.6079 28.1163 20.6079C30.9185 20.6079 32.6347 22.4939 32.6883 24.9475C32.6883 27.352 30.9185 29.2961 28.0045 29.2961ZM64.1342 60.6884H55.4459V45.1934C55.4459 41.5867 54.1856 39.1375 51.0437 39.1375C48.6437 39.1375 47.218 40.7956 46.5878 42.3911C46.3554 42.9587 46.2973 43.7632 46.2973 44.5632V60.6839H37.6045V41.6448C37.6045 38.1543 37.4928 35.2358 37.3766 32.7241H44.9252L45.323 36.6079H45.4973C46.6414 34.7844 49.4437 32.0939 54.132 32.0939C59.8482 32.0939 64.1342 35.9241 64.1342 44.1565V60.6884Z" fill="#6AB9AA"/>
</svg>
