<svg width="40" height="40" viewBox="0 0 40 40" fill="none" xmlns="http://www.w3.org/2000/svg">
<path opacity="0.2" d="M38.4617 20C38.4617 23.6513 37.3789 27.2207 35.3503 30.2567C33.3217 33.2926 30.4384 35.6589 27.065 37.0562C23.6916 38.4535 19.9796 38.8191 16.3985 38.1068C12.8173 37.3944 9.52773 35.6362 6.94584 33.0543C4.36395 30.4724 2.60566 27.1828 1.89332 23.6017C1.18097 20.0205 1.54657 16.3085 2.94388 12.9351C4.34119 9.56166 6.70746 6.67836 9.74344 4.64978C12.7794 2.6212 16.3488 1.53845 20.0001 1.53845C24.8964 1.53845 29.5922 3.4835 33.0544 6.94571C36.5166 10.4079 38.4617 15.1037 38.4617 20Z" fill="#6AB9AA"/>
<path d="M20 0C16.0444 0 12.1776 1.17298 8.8886 3.37061C5.59962 5.56823 3.03617 8.69181 1.52242 12.3463C0.00866569 16.0008 -0.387401 20.0222 0.384303 23.9018C1.15601 27.7814 3.06082 31.3451 5.85787 34.1421C8.65492 36.9392 12.2186 38.844 16.0982 39.6157C19.9778 40.3874 23.9991 39.9913 27.6537 38.4776C31.3082 36.9638 34.4318 34.4004 36.6294 31.1114C38.827 27.8224 40 23.9556 40 20C39.9944 14.6974 37.8855 9.61356 34.136 5.86405C30.3864 2.11453 25.3026 0.00559965 20 0ZM20 36.9231C16.6529 36.9231 13.381 35.9305 10.598 34.071C7.81506 32.2115 5.64599 29.5685 4.36512 26.4762C3.08426 23.3839 2.74912 19.9812 3.4021 16.6985C4.05508 13.4157 5.66685 10.4003 8.03358 8.03358C10.4003 5.66684 13.4157 4.05508 16.6985 3.40209C19.9812 2.74911 23.3839 3.08425 26.4762 4.36511C29.5685 5.64598 32.2115 7.81505 34.071 10.598C35.9306 13.381 36.9231 16.6529 36.9231 20C36.918 24.4867 35.1334 28.7882 31.9608 31.9608C28.7882 35.1334 24.4867 36.918 20 36.9231ZM29.2308 20C29.2308 20.408 29.0687 20.7993 28.7802 21.0879C28.4917 21.3764 28.1003 21.5385 27.6923 21.5385H21.5385V27.6923C21.5385 28.1003 21.3764 28.4916 21.0879 28.7802C20.7993 29.0687 20.408 29.2308 20 29.2308C19.592 29.2308 19.2007 29.0687 18.9121 28.7802C18.6236 28.4916 18.4615 28.1003 18.4615 27.6923V21.5385H12.3077C11.8997 21.5385 11.5084 21.3764 11.2198 21.0879C10.9313 20.7993 10.7692 20.408 10.7692 20C10.7692 19.592 10.9313 19.2007 11.2198 18.9121C11.5084 18.6236 11.8997 18.4615 12.3077 18.4615H18.4615V12.3077C18.4615 11.8997 18.6236 11.5084 18.9121 11.2198C19.2007 10.9313 19.592 10.7692 20 10.7692C20.408 10.7692 20.7993 10.9313 21.0879 11.2198C21.3764 11.5084 21.5385 11.8997 21.5385 12.3077V18.4615H27.6923C28.1003 18.4615 28.4917 18.6236 28.7802 18.9121C29.0687 19.2007 29.2308 19.592 29.2308 20Z" fill="#6AB9AA"/>
</svg>
