<svg width="83" height="83" viewBox="0 0 83 83" fill="none" xmlns="http://www.w3.org/2000/svg">
<path d="M83 41.5C83 18.5738 64.4106 0 41.5 0C18.5738 0 0 18.5738 0 41.5C0 62.2085 15.1708 79.3791 35.0156 82.489V53.4987H24.4772V41.5026H35.0156V32.3544C35.0156 21.9561 41.2017 16.2135 50.6845 16.2135C55.2261 16.2135 59.9805 17.0228 59.9805 17.0228V27.2344H54.7385C49.5925 27.2344 47.9844 30.4377 47.9844 33.7188V41.5H59.4928L57.6435 53.4961H47.9844V82.4864C67.8136 79.3765 83 62.2059 83 41.4974V41.5Z" fill="#6AB9AA"/>
</svg>
